<svg xmlns="http://www.w3.org/2000/svg" xmlns:xlink="http://www.w3.org/1999/xlink" width="500" zoomAndPan="magnify" viewBox="0 0 375 374.999991" height="500" preserveAspectRatio="xMidYMid meet" version="1.0"><defs><g/></defs><rect x="-37.5" width="450" fill="#ffffff" y="-37.499999" height="449.999989" fill-opacity="1"/><rect x="-37.5" width="450" fill="#ffffff" y="-37.499999" height="449.999989" fill-opacity="1"/><path stroke-linecap="butt" transform="matrix(0.75, 0, 0, 0.75, -69.127395, -15.71739)" fill="none" stroke-linejoin="miter" d="M 189.586539 375.326336 C 174.070913 375.326336 159.367787 373.993002 145.466744 371.326336 C 131.628202 368.65446 120.399035 365.368002 111.774034 361.456543 C 103.149033 357.487793 98.836533 353.576334 98.836533 349.732584 C 98.836533 346.196126 100.763617 342.472167 104.607367 338.560708 C 108.393825 334.591958 113.076117 331.14925 118.664659 328.232583 C 124.247993 325.315916 129.581327 323.857583 134.669869 323.857583 C 139.758411 323.857583 147.050078 325.685708 156.54487 329.347166 C 166.096954 333.008625 177.23758 337.784667 189.956331 343.6805 C 202.675082 349.513834 216.263624 355.99821 230.721958 363.133627 C 239.904251 361.086752 249.367793 357.982585 259.112585 353.826334 C 268.914669 349.607584 278.003212 344.331542 286.38342 338.003417 C 294.758421 331.612791 301.612588 324.227374 306.95113 315.852374 C 312.284464 307.414873 314.956339 298.138831 314.956339 288.024247 C 314.956339 279.894038 312.534464 272.727371 307.695922 266.524245 C 302.91988 260.25862 296.649046 254.701328 288.893837 249.862786 C 281.138628 245.024244 272.97717 240.774244 264.414669 237.112785 C 255.914668 233.388827 247.84696 230.008618 240.216751 226.966951 C 233.143834 224.175284 225.539666 221.008617 217.414666 217.472159 C 209.284457 213.8732 201.716748 209.6232 194.701123 204.722158 C 187.690706 199.758616 181.951122 193.862782 177.48758 187.039865 C 173.08133 180.14924 170.878205 171.992989 170.878205 162.560697 C 170.878205 149.841946 175.372996 137.711737 184.372997 126.17007 C 193.430289 114.565902 205.779248 104.138818 221.414666 94.894026 C 237.050084 85.586734 255.013627 78.269025 275.305295 72.930483 C 295.659463 67.591941 317.159464 64.925274 339.805299 64.925274 C 358.050092 64.925274 371.732384 65.888816 380.852177 67.810691 C 390.034469 69.732566 396.206344 72.154441 399.373011 75.071108 C 402.59697 77.987775 404.211553 80.841942 404.211553 83.633608 C 404.211553 90.769026 400.086553 98.805484 391.831344 107.737777 C 383.581343 116.612777 372.195926 126.508611 357.675092 137.430487 L 354.602175 132.867987 C 360.435509 128.774236 365.123009 124.894028 368.659467 121.237778 C 372.258426 117.513819 374.055301 114.253402 374.055301 111.461735 C 374.055301 108.175277 371.945926 104.451318 367.727176 100.295068 C 363.570925 96.076318 355.815717 92.321109 344.461549 89.029442 C 333.164673 85.680484 316.846964 84.008608 295.503213 84.008608 C 278.003212 84.008608 261.873002 86.362775 247.102168 91.081526 C 232.399042 95.795068 220.576124 102.279443 211.643832 110.534652 C 202.768832 118.784652 198.331331 128.373195 198.331331 139.289862 C 198.331331 147.170071 200.596956 154.248196 205.128207 160.513822 C 209.721957 166.716947 217.289666 172.675281 227.836542 178.383615 C 238.388626 184.091948 252.56571 190.513824 270.373003 197.649241 C 278.253212 200.690908 286.44592 204.196116 294.945921 208.164867 C 303.445922 212.076325 311.38863 216.576325 318.768839 221.659659 C 326.154256 226.748201 332.11259 232.612785 336.638632 239.25341 C 341.232382 245.831536 343.529258 253.305495 343.529258 261.685703 C 343.529258 275.644038 339.279257 289.35758 330.779257 302.821123 C 322.279256 316.284665 310.768839 328.508624 296.248004 339.493 C 281.78967 350.414876 265.346961 359.133627 246.919876 365.649252 C 228.487583 372.102377 209.378207 375.326336 189.586539 375.326336 Z M 189.586539 375.326336 " stroke="#001737" stroke-width="28.592775" stroke-opacity="1" stroke-miterlimit="4"/><g fill="#001737" fill-opacity="1"><g transform="translate(17.286662, 264.032592)"><g><path d="M 55.75 1.71875 C 44.125 1.71875 33.113281 0.71875 22.71875 -1.28125 C 12.332031 -3.28125 3.898438 -5.757812 -2.578125 -8.71875 C -9.054688 -11.675781 -12.296875 -14.582031 -12.296875 -17.4375 C -12.296875 -20.101562 -10.863281 -22.914062 -8 -25.875 C -5.144531 -28.832031 -1.625 -31.40625 2.5625 -33.59375 C 6.757812 -35.789062 10.765625 -36.890625 14.578125 -36.890625 C 18.390625 -36.890625 23.867188 -35.503906 31.015625 -32.734375 C 38.171875 -29.972656 46.515625 -26.398438 56.046875 -22.015625 C 65.578125 -17.628906 75.773438 -12.769531 86.640625 -7.4375 C 93.492188 -8.957031 100.585938 -11.289062 107.921875 -14.4375 C 115.265625 -17.582031 122.082031 -21.535156 128.375 -26.296875 C 134.664062 -31.066406 139.8125 -36.597656 143.8125 -42.890625 C 147.820312 -49.179688 149.828125 -56.140625 149.828125 -63.765625 C 149.828125 -69.859375 148.015625 -75.238281 144.390625 -79.90625 C 140.765625 -84.582031 136.046875 -88.726562 130.234375 -92.34375 C 124.421875 -95.96875 118.320312 -99.160156 111.9375 -101.921875 C 105.550781 -104.691406 99.5 -107.222656 93.78125 -109.515625 C 88.445312 -111.609375 82.726562 -113.988281 76.625 -116.65625 C 70.53125 -119.320312 64.859375 -122.515625 59.609375 -126.234375 C 54.367188 -129.953125 50.082031 -134.382812 46.75 -139.53125 C 43.414062 -144.675781 41.75 -150.773438 41.75 -157.828125 C 41.75 -167.359375 45.128906 -176.457031 51.890625 -185.125 C 58.660156 -193.800781 67.90625 -201.617188 79.625 -208.578125 C 91.351562 -215.535156 104.835938 -221.015625 120.078125 -225.015625 C 135.328125 -229.023438 151.4375 -231.03125 168.40625 -231.03125 C 182.132812 -231.03125 192.425781 -230.3125 199.28125 -228.875 C 206.144531 -227.445312 210.769531 -225.632812 213.15625 -223.4375 C 215.539062 -221.25 216.734375 -219.109375 216.734375 -217.015625 C 216.734375 -211.679688 213.632812 -205.675781 207.4375 -199 C 201.238281 -192.332031 192.707031 -184.898438 181.84375 -176.703125 L 179.5625 -180.125 C 183.945312 -183.175781 187.472656 -186.082031 190.140625 -188.84375 C 192.804688 -191.613281 194.140625 -194.046875 194.140625 -196.140625 C 194.140625 -198.617188 192.566406 -201.429688 189.421875 -204.578125 C 186.273438 -207.722656 180.460938 -210.535156 171.984375 -213.015625 C 163.503906 -215.492188 151.253906 -216.734375 135.234375 -216.734375 C 122.085938 -216.734375 109.984375 -214.96875 98.921875 -211.4375 C 87.867188 -207.914062 79.003906 -203.054688 72.328125 -196.859375 C 65.660156 -190.660156 62.328125 -183.460938 62.328125 -175.265625 C 62.328125 -169.359375 64.039062 -164.066406 67.46875 -159.390625 C 70.90625 -154.722656 76.578125 -150.242188 84.484375 -145.953125 C 92.398438 -141.671875 103.03125 -136.863281 116.375 -131.53125 C 122.28125 -129.238281 128.425781 -126.613281 134.8125 -123.65625 C 141.195312 -120.707031 147.148438 -117.328125 152.671875 -113.515625 C 158.203125 -109.703125 162.679688 -105.316406 166.109375 -100.359375 C 169.546875 -95.398438 171.265625 -89.773438 171.265625 -83.484375 C 171.265625 -73.003906 168.070312 -62.710938 161.6875 -52.609375 C 155.300781 -42.503906 146.675781 -33.351562 135.8125 -25.15625 C 124.945312 -16.957031 112.601562 -10.425781 98.78125 -5.5625 C 84.96875 -0.707031 70.625 1.71875 55.75 1.71875 Z M 55.75 1.71875 "/></g></g></g><path stroke-linecap="butt" transform="matrix(0.75, 0, 0, 0.75, 38.914708, 54.789546)" fill="none" stroke-linejoin="miter" d="M 96.155396 372.99938 C 93.613729 372.99938 92.092896 372.692088 91.598104 372.067088 C 91.098104 371.447296 90.853312 370.488963 90.853312 369.181671 C 90.853312 367.942088 92.618937 365.556671 96.155396 362.015004 C 99.691854 358.416046 103.697063 354.791045 108.160605 351.129587 C 112.629355 347.405628 115.858522 344.796253 117.842897 343.311878 C 122.931439 338.968128 127.43144 333.629586 131.33769 327.30146 C 135.311648 320.910835 138.967899 314.921251 142.322066 309.337917 C 152.18665 292.025416 160.62415 275.895207 167.634567 260.936872 C 174.650193 245.921246 181.56686 231.061871 188.389777 216.358745 L 157.118941 216.358745 L 157.118941 210.212911 L 191.462694 210.212911 C 195.806444 200.780619 200.431444 191.197285 205.332486 181.452492 C 210.296028 171.650408 215.973112 161.285824 222.363737 150.369157 C 227.452279 141.494156 232.848113 133.832697 238.561655 127.379572 C 244.269989 120.863947 252.582489 115.311863 263.504365 110.718113 L 285.280408 101.59832 L 191.092902 101.59832 C 184.452277 101.59832 179.363735 102.869154 175.827276 105.410821 C 172.290817 107.957696 168.348109 111.744154 164.009567 116.770196 L 160.56165 114.905613 C 167.452276 105.228529 173.160609 96.97332 177.686651 90.150403 C 182.280401 83.259777 186.874152 77.801444 191.462694 73.770194 C 194.254361 71.473318 197.421027 69.952485 200.957486 69.207693 C 204.556445 68.400401 207.749153 67.99936 210.546028 67.99936 L 417.540834 67.99936 C 425.171042 67.99936 430.634584 69.145193 433.921043 71.442068 C 437.207502 73.738944 438.853335 77.056652 438.853335 81.400402 C 439.103335 88.473319 435.035626 96.478528 426.660626 105.410821 C 418.285625 114.285821 406.868958 124.181655 392.410624 135.103531 L 389.337707 130.541031 C 395.17104 126.44728 399.853332 122.567072 403.394999 118.910821 C 406.993958 115.249363 408.790833 112.020196 408.790833 109.228529 C 408.790833 105.379571 406.993958 103.150404 403.394999 102.525404 C 399.853332 101.905612 394.801249 101.59832 388.223123 101.59832 L 296.264784 101.59832 C 289.191867 106.686862 283.546033 112.395196 279.327283 118.723321 C 275.165824 125.051447 270.915824 131.785822 266.572074 138.921239 C 258.941865 152.134782 252.332489 164.546241 246.749156 176.150409 C 241.165822 187.692076 235.82728 199.046243 230.738738 210.212911 L 355.738746 210.212911 L 355.738746 216.358745 L 227.671029 216.358745 C 222.332487 228.520204 216.686654 240.895204 210.72832 253.494164 C 204.775195 266.087914 197.728319 279.613957 189.603319 294.072291 C 184.764777 302.697292 179.457485 309.957709 173.686651 315.853543 C 167.978317 321.686876 160.68665 327.02021 151.816858 331.86396 L 137.296024 339.494169 L 311.53041 339.494169 C 318.165827 339.494169 323.254369 338.223336 326.790828 335.676461 C 330.327286 333.134794 334.269995 329.317085 338.613745 324.228543 L 342.056454 326.093127 C 335.171037 335.520211 329.431453 343.74417 324.837703 350.754587 C 320.306452 357.702504 315.74916 363.228546 311.15541 367.322296 C 308.363743 369.556671 305.171035 371.077505 301.572076 371.884796 C 298.035617 372.629588 294.868951 372.99938 292.077284 372.99938 Z M 96.155396 372.99938 " stroke="#001737" stroke-width="28.592775" stroke-opacity="1" stroke-miterlimit="4"/><g fill="#001737" fill-opacity="1"><g transform="translate(111.031891, 334.539528)"><g><path d="M 0 0 C -1.90625 0 -3.046875 -0.234375 -3.421875 -0.703125 C -3.804688 -1.179688 -4 -1.898438 -4 -2.859375 C -4 -3.804688 -2.664062 -5.613281 0 -8.28125 C 2.664062 -10.957031 5.664062 -13.675781 9 -16.4375 C 12.34375 -19.207031 14.773438 -21.160156 16.296875 -22.296875 C 20.109375 -25.535156 23.488281 -29.535156 26.4375 -34.296875 C 29.394531 -39.066406 32.113281 -43.550781 34.59375 -47.75 C 42.03125 -60.707031 48.367188 -72.8125 53.609375 -84.0625 C 58.847656 -95.3125 64.039062 -106.460938 69.1875 -117.515625 L 45.75 -117.515625 L 45.75 -122.09375 L 71.484375 -122.09375 C 74.722656 -129.144531 78.195312 -136.335938 81.90625 -143.671875 C 85.625 -151.015625 89.867188 -158.785156 94.640625 -166.984375 C 98.453125 -173.648438 102.5 -179.410156 106.78125 -184.265625 C 111.070312 -189.128906 117.316406 -193.28125 125.515625 -196.71875 L 141.8125 -203.578125 L 71.1875 -203.578125 C 66.238281 -203.578125 62.425781 -202.625 59.75 -200.71875 C 57.082031 -198.8125 54.128906 -195.953125 50.890625 -192.140625 L 48.328125 -193.5625 C 53.472656 -200.8125 57.757812 -207.007812 61.1875 -212.15625 C 64.613281 -217.300781 68.046875 -221.398438 71.484375 -224.453125 C 73.578125 -226.160156 75.957031 -227.300781 78.625 -227.875 C 81.289062 -228.445312 83.675781 -228.734375 85.78125 -228.734375 L 241.03125 -228.734375 C 246.75 -228.734375 250.847656 -227.875 253.328125 -226.15625 C 255.804688 -224.445312 257.046875 -221.972656 257.046875 -218.734375 C 257.234375 -213.390625 254.179688 -207.378906 247.890625 -200.703125 C 241.597656 -194.035156 233.019531 -186.609375 222.15625 -178.421875 L 219.875 -181.84375 C 224.257812 -184.894531 227.785156 -187.800781 230.453125 -190.5625 C 233.117188 -193.332031 234.453125 -195.765625 234.453125 -197.859375 C 234.453125 -200.710938 233.117188 -202.378906 230.453125 -202.859375 C 227.785156 -203.335938 223.972656 -203.578125 219.015625 -203.578125 L 150.109375 -203.578125 C 144.773438 -199.765625 140.535156 -195.472656 137.390625 -190.703125 C 134.242188 -185.941406 131.050781 -180.894531 127.8125 -175.5625 C 122.09375 -165.644531 117.132812 -156.347656 112.9375 -147.671875 C 108.75 -139.003906 104.75 -130.476562 100.9375 -122.09375 L 194.71875 -122.09375 L 194.71875 -117.515625 L 98.640625 -117.515625 C 94.640625 -108.367188 90.398438 -99.078125 85.921875 -89.640625 C 81.441406 -80.203125 76.148438 -70.050781 70.046875 -59.1875 C 66.429688 -52.707031 62.476562 -47.273438 58.1875 -42.890625 C 53.894531 -38.503906 48.414062 -34.5 41.75 -30.875 L 30.875 -25.15625 L 161.546875 -25.15625 C 166.503906 -25.15625 170.316406 -26.109375 172.984375 -28.015625 C 175.648438 -29.921875 178.601562 -32.78125 181.84375 -36.59375 L 184.421875 -35.171875 C 179.273438 -28.117188 174.984375 -21.96875 171.546875 -16.71875 C 168.117188 -11.476562 164.691406 -7.332031 161.265625 -4.28125 C 159.160156 -2.570312 156.773438 -1.429688 154.109375 -0.859375 C 151.441406 -0.285156 149.0625 0 146.96875 0 Z M 0 0 "/></g></g></g></svg>